<?xml version="1.0" encoding="UTF-8"?>
<!DOCTYPE svg PUBLIC "-//W3C//DTD SVG 1.1//EN" "http://www.w3.org/Graphics/SVG/1.1/DTD/svg11.dtd">
<svg xmlns="http://www.w3.org/2000/svg" version="1.1" width="1024px" height="1024px" style="shape-rendering:geometricPrecision; text-rendering:geometricPrecision; image-rendering:optimizeQuality; fill-rule:evenodd; clip-rule:evenodd" xmlns:xlink="http://www.w3.org/1999/xlink">
<g><path style="opacity:0.991" fill="#000000" d="M 479.5,-0.5 C 500.5,-0.5 521.5,-0.5 542.5,-0.5C 703.27,13.1143 831.77,84.1143 928,212.5C 984.724,292.831 1016.56,382.164 1023.5,480.5C 1023.5,501.5 1023.5,522.5 1023.5,543.5C 1009.49,704.4 938.156,832.9 809.5,929C 729.404,985.369 640.404,1016.87 542.5,1023.5C 521.833,1023.5 501.167,1023.5 480.5,1023.5C 319.191,1009.78 190.358,938.451 94,809.5C 37.9286,729.665 6.42857,640.998 -0.5,543.5C -0.5,522.167 -0.5,500.833 -0.5,479.5C 13.8391,313.593 88.5058,182.759 223.5,87C 301.052,35.2047 386.385,6.03802 479.5,-0.5 Z M 509.5,127.5 C 628.502,129.93 727.002,175.597 805,264.5C 887.1,366.93 912.766,482.264 882,610.5C 852.946,712.194 793.113,790.027 702.5,844C 605.881,897.411 504.547,908.744 398.5,878C 270.838,835.005 186.005,749.505 144,621.5C 110.166,497.358 130.833,383.358 206,279.5C 271.511,195.634 357.344,146.134 463.5,131C 478.953,129.347 494.287,128.181 509.5,127.5 Z"/></g>
<g><path style="opacity:0.989" fill="#000000" d="M 373.5,319.5 C 390.957,317.423 406.957,321.257 421.5,331C 451.653,360.319 481.653,389.819 511.5,419.5C 540.32,391.18 568.986,362.68 597.5,334C 614.695,320.625 634.028,316.292 655.5,321C 690.668,332.862 706.501,357.362 703,394.5C 700.77,405.958 696.103,416.292 689,425.5C 660.32,454.014 631.82,482.68 603.5,511.5C 631.82,540.32 660.32,568.986 689,597.5C 706.021,621.235 708.021,646.235 695,672.5C 674.887,701.093 648.053,709.926 614.5,699C 608.34,696.423 602.673,693.09 597.5,689C 568.986,660.32 540.32,631.82 511.5,603.5C 482.68,631.82 454.014,660.32 425.5,689C 400.066,707.64 373.733,708.973 346.5,693C 318.965,670.338 312.131,642.504 326,609.5C 328.667,605.5 331.333,601.5 334,597.5C 362.68,568.986 391.18,540.32 419.5,511.5C 391.18,482.68 362.68,454.014 334,425.5C 316.979,401.765 314.979,376.765 328,350.5C 338.719,333.61 353.886,323.277 373.5,319.5 Z"/></g>
</svg>
