<?xml version="1.0" encoding="UTF-8"?>
<!DOCTYPE svg PUBLIC "-//W3C//DTD SVG 1.1//EN" "http://www.w3.org/Graphics/SVG/1.1/DTD/svg11.dtd">
<svg xmlns="http://www.w3.org/2000/svg" version="1.1" width="1024px" height="1024px" style="shape-rendering:geometricPrecision; text-rendering:geometricPrecision; image-rendering:optimizeQuality; fill-rule:evenodd; clip-rule:evenodd" xmlns:xlink="http://www.w3.org/1999/xlink">
<g><path style="opacity:0.991" fill="#000000" d="M 479.5,-0.5 C 500.5,-0.5 521.5,-0.5 542.5,-0.5C 703.27,13.1143 831.77,84.1143 928,212.5C 984.724,292.831 1016.56,382.164 1023.5,480.5C 1023.5,501.5 1023.5,522.5 1023.5,543.5C 1009.49,704.4 938.156,832.9 809.5,929C 729.404,985.369 640.404,1016.87 542.5,1023.5C 521.833,1023.5 501.167,1023.5 480.5,1023.5C 319.191,1009.78 190.358,938.451 94,809.5C 37.9286,729.665 6.42857,640.998 -0.5,543.5C -0.5,522.167 -0.5,500.833 -0.5,479.5C 13.8391,313.593 88.5058,182.759 223.5,87C 301.052,35.2047 386.385,6.03802 479.5,-0.5 Z M 509.5,127.5 C 628.502,129.93 727.002,175.597 805,264.5C 887.1,366.93 912.766,482.264 882,610.5C 852.946,712.194 793.113,790.027 702.5,844C 605.881,897.411 504.547,908.744 398.5,878C 270.838,835.005 186.005,749.505 144,621.5C 110.166,497.358 130.833,383.358 206,279.5C 271.511,195.634 357.344,146.134 463.5,131C 478.953,129.347 494.287,128.181 509.5,127.5 Z"/></g>
<g><path style="opacity:0.995" fill="#000000" d="M 371.5,447.5 C 464.834,447.333 558.167,447.5 651.5,448C 679.307,454.473 696.473,471.64 703,499.5C 706.78,533.45 693.28,557.617 662.5,572C 658.58,573.313 654.58,574.313 650.5,575C 556.131,575.988 461.798,575.655 367.5,574C 331.894,561.987 316.061,537.154 320,499.5C 326.681,471.653 343.848,454.319 371.5,447.5 Z"/></g>
</svg>
