<?xml version="1.0" encoding="UTF-8"?>
<!DOCTYPE svg PUBLIC "-//W3C//DTD SVG 1.1//EN" "http://www.w3.org/Graphics/SVG/1.1/DTD/svg11.dtd">
<svg xmlns="http://www.w3.org/2000/svg" version="1.1" width="512px" height="512px" style="shape-rendering:geometricPrecision; text-rendering:geometricPrecision; image-rendering:optimizeQuality; fill-rule:evenodd; clip-rule:evenodd" xmlns:xlink="http://www.w3.org/1999/xlink">
<g><path style="opacity:0.982" fill="#000000" d="M 232.5,-0.5 C 247.833,-0.5 263.167,-0.5 278.5,-0.5C 378.272,12.4494 449.438,64.4494 492,155.5C 502.135,180.377 508.635,206.043 511.5,232.5C 511.5,247.833 511.5,263.167 511.5,278.5C 500.612,368.144 456.279,435.644 378.5,481C 347.029,497.695 313.696,507.861 278.5,511.5C 263.167,511.5 247.833,511.5 232.5,511.5C 142.856,500.612 75.3562,456.279 30,378.5C 13.3053,347.029 3.1386,313.696 -0.5,278.5C -0.5,263.167 -0.5,247.833 -0.5,232.5C 10.3875,142.857 54.7208,75.3573 132.5,30C 163.971,13.3053 197.304,3.1386 232.5,-0.5 Z M 254.5,63.5 C 335.22,67.1169 393.72,104.784 430,176.5C 449.717,223.398 451.717,271.064 436,319.5C 413.767,377.4 373.433,416.733 315,437.5C 236.913,459.313 169.58,441.313 113,383.5C 64.6173,325.563 52.2839,260.563 76,188.5C 104.519,119.979 155.352,79.1455 228.5,66C 237.315,65.1275 245.982,64.2942 254.5,63.5 Z"/></g>
<g><path style="opacity:0.978" fill="#000000" d="M 334.5,158.5 C 355.504,160.171 366.838,171.504 368.5,192.5C 367.572,198.45 365.739,204.116 363,209.5C 325.167,254.667 287.333,299.833 249.5,345C 231.222,355.768 215.056,353.268 201,337.5C 183,315.5 165,293.5 147,271.5C 140.605,256.532 142.772,243.032 153.5,231C 164.553,223.054 176.553,221.388 189.5,226C 193.278,228.112 196.778,230.612 200,233.5C 209.667,245.167 219.333,256.833 229,268.5C 256.572,235.684 283.905,202.684 311,169.5C 317.594,162.95 325.427,159.284 334.5,158.5 Z"/></g>
</svg>
