<?xml version="1.0" encoding="UTF-8"?>
<!DOCTYPE svg PUBLIC "-//W3C//DTD SVG 1.1//EN" "http://www.w3.org/Graphics/SVG/1.1/DTD/svg11.dtd">
<svg xmlns="http://www.w3.org/2000/svg" version="1.1" width="1024px" height="1024px" style="shape-rendering:geometricPrecision; text-rendering:geometricPrecision; image-rendering:optimizeQuality; fill-rule:evenodd; clip-rule:evenodd" xmlns:xlink="http://www.w3.org/1999/xlink">
<g><path style="opacity:0.989" fill="#000000" d="M 1023.5,200.5 C 1023.5,208.5 1023.5,216.5 1023.5,224.5C 1020.39,239.392 1013.55,252.392 1003,263.5C 982.5,284 962,304.5 941.5,325C 935.288,330.301 928.288,331.635 920.5,329C 864.361,273.861 808.527,218.361 753,162.5C 748.333,155.5 748.333,148.5 753,141.5C 777.195,116.972 801.695,92.805 826.5,69C 847.465,55.5117 869.798,52.8451 893.5,61C 900.324,63.9091 906.658,67.5757 912.5,72C 944.333,103.833 976.167,135.667 1008,167.5C 1015.58,177.426 1020.75,188.426 1023.5,200.5 Z"/></g>
<g><path style="opacity:0.993" fill="#000000" d="M -0.5,894.5 C -0.5,677.167 -0.5,459.833 -0.5,242.5C 8.71222,199.792 35.0455,175.625 78.5,170C 252.534,169.007 426.534,169.34 600.5,171C 614.814,178.615 618.314,189.782 611,204.5C 585.833,229.667 560.667,254.833 535.5,280C 532.874,282.146 529.874,283.479 526.5,284C 388.834,284.5 251.167,284.667 113.5,284.5C 113.5,473.833 113.5,663.167 113.5,852.5C 302.833,852.5 492.167,852.5 681.5,852.5C 681.333,791.166 681.5,729.832 682,668.5C 682.511,666.122 683.178,663.788 684,661.5C 709.472,635.028 735.305,608.861 761.5,583C 773.457,576.861 783.957,578.694 793,588.5C 794.562,590.957 795.562,593.624 796,596.5C 796.667,694.5 796.667,792.5 796,890.5C 789.382,931.451 765.882,956.618 725.5,966C 507.167,966.667 288.833,966.667 70.5,966C 31.2352,957.569 7.56855,933.735 -0.5,894.5 Z"/></g>
<g><path style="opacity:0.995" fill="#000000" d="M 700.5,198.5 C 705.127,198.573 709.46,199.74 713.5,202C 768.333,256.833 823.167,311.667 878,366.5C 882.667,373.5 882.667,380.5 878,387.5C 747.833,517.667 617.667,647.833 487.5,778C 431.364,784.46 375.197,790.626 319,796.5C 300.526,795.694 288.859,786.361 284,768.5C 283.833,766 283.667,763.5 283.5,761C 289.374,704.803 295.54,648.637 302,592.5C 432.167,462.333 562.333,332.167 692.5,202C 695.158,200.522 697.825,199.355 700.5,198.5 Z"/></g>
</svg>
